<?xml version="1.0" encoding="UTF-8" standalone="no"?>
<!-- Created with Inkscape (http://www.inkscape.org/) -->

<svg
   width="131.92897mm"
   height="46.353504mm"
   viewBox="0 0 131.92897 46.353504"
   version="1.1"
   id="svg5"
   inkscape:version="1.2.1 (9c6d41e410, 2022-07-14)"
   sodipodi:docname="conc-gradient-1d.svg"
   xmlns:inkscape="http://www.inkscape.org/namespaces/inkscape"
   xmlns:sodipodi="http://sodipodi.sourceforge.net/DTD/sodipodi-0.dtd"
   xmlns="http://www.w3.org/2000/svg"
   xmlns:svg="http://www.w3.org/2000/svg">
  <sodipodi:namedview
     id="namedview7"
     pagecolor="#ffffff"
     bordercolor="#000000"
     borderopacity="0.25"
     inkscape:showpageshadow="2"
     inkscape:pageopacity="0.0"
     inkscape:pagecheckerboard="0"
     inkscape:deskcolor="#d1d1d1"
     inkscape:document-units="mm"
     showgrid="false"
     inkscape:zoom="3.5697871"
     inkscape:cx="249.31459"
     inkscape:cy="87.540235"
     inkscape:window-width="1920"
     inkscape:window-height="1001"
     inkscape:window-x="1911"
     inkscape:window-y="-9"
     inkscape:window-maximized="1"
     inkscape:current-layer="layer1" />
  <defs
     id="defs2">
    <marker
       style="overflow:visible"
       id="marker2614"
       refX="0"
       refY="0"
       orient="auto-start-reverse"
       inkscape:stockid="Arrow1L"
       markerWidth="8.75"
       markerHeight="5"
       viewBox="0 0 8.75 5"
       inkscape:isstock="true"
       inkscape:collect="always"
       preserveAspectRatio="xMidYMid">
      <path
         style="fill:context-stroke;fill-rule:evenodd;stroke:none"
         d="M 0,0 5,-5 -12.5,0 5,5 Z"
         id="path2612"
         transform="scale(-0.5)" />
    </marker>
    <marker
       style="overflow:visible"
       id="Arrow1L"
       refX="0"
       refY="0"
       orient="auto-start-reverse"
       inkscape:stockid="Arrow1L"
       markerWidth="8.75"
       markerHeight="5"
       viewBox="0 0 8.75 5"
       inkscape:isstock="true"
       inkscape:collect="always"
       preserveAspectRatio="xMidYMid">
      <path
         style="fill:context-stroke;fill-rule:evenodd;stroke:none"
         d="M 0,0 5,-5 -12.5,0 5,5 Z"
         id="arrow1L"
         transform="scale(-0.5)" />
    </marker>
    <clipPath
       id="clipPath5368">
      <path
         clip-rule="nonzero"
         d="m 242,10 h 7 v 6.9375 h -7 z m 0,0"
         id="path5756" />
    </clipPath>
    <clipPath
       id="clipPath9249">
      <path
         clip-rule="nonzero"
         d="m 241,10 h 8 v 6.9375 h -8 z m 0,0"
         id="path2368" />
    </clipPath>
    <clipPath
       id="clipPath6480">
      <path
         clip-rule="nonzero"
         d="m 224,20 h 8 v 10.503906 h -8 z m 0,0"
         id="path7695" />
    </clipPath>
    <clipPath
       id="clipPath2502">
      <path
         clip-rule="nonzero"
         d="m 232,24 h 8 v 6.503906 h -8 z m 0,0"
         id="path3557" />
    </clipPath>
    <clipPath
       id="clipPath7425">
      <path
         clip-rule="nonzero"
         d="m 224,20 h 8 v 10.503906 h -8 z m 0,0"
         id="path1636" />
    </clipPath>
    <clipPath
       id="clipPath5007">
      <path
         clip-rule="nonzero"
         d="m 232,24 h 8 v 6.503906 h -8 z m 0,0"
         id="path6357" />
    </clipPath>
  </defs>
  <g
     inkscape:label="Layer 1"
     inkscape:groupmode="layer"
     id="layer1"
     transform="translate(-23.7162, -34.6465)">
    <g
       id="g3159">
      <g
         id="g3033"
         transform="translate(68.79167)">
        <path
           style="fill:none;stroke:#000000;stroke-width:0.352778;marker-end:url(#marker2614)"
           d="M 23.716216,75.527026 H 84.648647"
           id="path3029" />
        <path
           style="fill:none;stroke:#000000;stroke-width:0.352777;stroke-dasharray:none;marker-end:url(#Arrow1L)"
           d="M 30.283785,80.999998 V 36.851351"
           id="path3031" />
      </g>
      <g
         inkscape:label=""
         transform="translate(95.461857,35.795332)"
         id="g3067">
        <g
           clip-path="url(#clipPath5368)"
           id="g17"
           transform="matrix(0.352778,0,0,0.352778,-85.6083,-3.74222)">
          <g
             fill="#000000"
             fill-opacity="1"
             id="g15">
            <g
               id="use13"
               transform="translate(242.091,16.936001)">
              <path
                 d="m 5.609375,-5.390625 c -0.28125,0 -0.40625,0 -0.609375,0.171875 -0.078125,0.0625 -0.234375,0.28125 -0.234375,0.515625 0,0.28125 0.21875,0.453125 0.484375,0.453125 0.34375,0 0.734375,-0.28125 0.734375,-0.859375 0,-0.6875 -0.65625,-1.21875 -1.65625,-1.21875 -1.875,0 -3.75,2.046875 -3.75,4.09375 0,1.25 0.765625,2.375 2.234375,2.375 C 4.765625,0.140625 6,-1.375 6,-1.5625 6,-1.65625 5.90625,-1.71875 5.859375,-1.71875 c -0.046875,0 -0.0625,0.015625 -0.1875,0.140625 -0.921875,1.21875 -2.28125,1.4375 -2.828125,1.4375 -1,0 -1.3125,-0.859375 -1.3125,-1.578125 0,-0.5 0.25,-1.890625 0.765625,-2.875 0.375,-0.671875 1.140625,-1.4375 2.046875,-1.4375 0.1875,0 0.984375,0.015625 1.265625,0.640625 z m 0,0"
                 id="path23" />
            </g>
          </g>
        </g>
      </g>
      <g
         inkscape:label=""
         transform="translate(150.6052,77.078724)"
         id="g3135">
        <g
           clip-path="url(#clipPath9249)"
           id="g3133"
           transform="matrix(0.352778,0,0,0.352778,-85.2058,-3.74222)">
          <g
             fill="#000000"
             fill-opacity="1"
             id="g3131">
            <g
               id="g3129"
               transform="translate(241.12199,16.936001)">
              <path
                 d="m 6.796875,-5.859375 c -0.453125,0.09375 -0.625,0.4375 -0.625,0.703125 0,0.34375 0.265625,0.46875 0.46875,0.46875 0.4375,0 0.734375,-0.375 0.734375,-0.765625 0,-0.59375 -0.6875,-0.875 -1.296875,-0.875 -0.875,0 -1.359375,0.859375 -1.484375,1.140625 C 4.265625,-6.265625 3.375,-6.328125 3.109375,-6.328125 1.65625,-6.328125 0.875,-4.453125 0.875,-4.125 0.875,-4.078125 0.9375,-4 1.03125,-4 1.140625,-4 1.171875,-4.09375 1.203125,-4.140625 1.6875,-5.734375 2.65625,-6.03125 3.0625,-6.03125 c 0.65625,0 0.78125,0.59375 0.78125,0.9375 0,0.3125 -0.078125,0.640625 -0.265625,1.328125 l -0.484375,1.96875 c -0.203125,0.859375 -0.625,1.65625 -1.390625,1.65625 -0.0625,0 -0.421875,0 -0.734375,-0.1875 0.515625,-0.109375 0.640625,-0.53125 0.640625,-0.703125 0,-0.28125 -0.21875,-0.453125 -0.484375,-0.453125 -0.34375,0 -0.71875,0.296875 -0.71875,0.75 0,0.609375 0.671875,0.875 1.28125,0.875 0.6875,0 1.1875,-0.546875 1.484375,-1.125 0.234375,0.84375 0.9375,1.125 1.46875,1.125 1.46875,0 2.25,-1.875 2.25,-2.1875 0,-0.078125 -0.0625,-0.140625 -0.15625,-0.140625 -0.125,0 -0.140625,0.078125 -0.171875,0.1875 -0.390625,1.265625 -1.234375,1.859375 -1.875,1.859375 -0.5,0 -0.765625,-0.375 -0.765625,-0.96875 0,-0.3125 0.046875,-0.546875 0.28125,-1.484375 l 0.5,-1.953125 C 4.921875,-5.40625 5.40625,-6.03125 6.0625,-6.03125 c 0.03125,0 0.4375,0 0.734375,0.171875 z m 0,0"
                 id="path3127" />
            </g>
          </g>
        </g>
      </g>
    </g>
    <g
       id="g3187"
       transform="translate(-68.79167)">
      <g
         id="g3165"
         transform="translate(68.79167)">
        <path
           style="fill:none;stroke:#000000;stroke-width:0.352778;marker-end:url(#marker2614)"
           d="M 23.716216,75.527026 H 84.648647"
           id="path3161" />
        <path
           style="fill:none;stroke:#000000;stroke-width:0.352777;stroke-dasharray:none;marker-end:url(#Arrow1L)"
           d="M 30.283785,80.999998 V 36.851351"
           id="path3163" />
      </g>
      <g
         inkscape:label=""
         transform="translate(95.461857,35.795332)"
         id="g3175">
        <g
           clip-path="url(#clipPath5368)"
           id="g3173"
           transform="matrix(0.352778,0,0,0.352778,-85.6083,-3.74222)">
          <g
             fill="#000000"
             fill-opacity="1"
             id="g3171">
            <g
               id="g3169"
               transform="translate(242.091,16.936001)">
              <path
                 d="m 5.609375,-5.390625 c -0.28125,0 -0.40625,0 -0.609375,0.171875 -0.078125,0.0625 -0.234375,0.28125 -0.234375,0.515625 0,0.28125 0.21875,0.453125 0.484375,0.453125 0.34375,0 0.734375,-0.28125 0.734375,-0.859375 0,-0.6875 -0.65625,-1.21875 -1.65625,-1.21875 -1.875,0 -3.75,2.046875 -3.75,4.09375 0,1.25 0.765625,2.375 2.234375,2.375 C 4.765625,0.140625 6,-1.375 6,-1.5625 6,-1.65625 5.90625,-1.71875 5.859375,-1.71875 c -0.046875,0 -0.0625,0.015625 -0.1875,0.140625 -0.921875,1.21875 -2.28125,1.4375 -2.828125,1.4375 -1,0 -1.3125,-0.859375 -1.3125,-1.578125 0,-0.5 0.25,-1.890625 0.765625,-2.875 0.375,-0.671875 1.140625,-1.4375 2.046875,-1.4375 0.1875,0 0.984375,0.015625 1.265625,0.640625 z m 0,0"
                 id="path3167" />
            </g>
          </g>
        </g>
      </g>
      <g
         inkscape:label=""
         transform="translate(150.6052,77.078724)"
         id="g3185">
        <g
           clip-path="url(#clipPath9249)"
           id="g3183"
           transform="matrix(0.352778,0,0,0.352778,-85.2058,-3.74222)">
          <g
             fill="#000000"
             fill-opacity="1"
             id="g3181">
            <g
               id="g3179"
               transform="translate(241.12199,16.936001)">
              <path
                 d="m 6.796875,-5.859375 c -0.453125,0.09375 -0.625,0.4375 -0.625,0.703125 0,0.34375 0.265625,0.46875 0.46875,0.46875 0.4375,0 0.734375,-0.375 0.734375,-0.765625 0,-0.59375 -0.6875,-0.875 -1.296875,-0.875 -0.875,0 -1.359375,0.859375 -1.484375,1.140625 C 4.265625,-6.265625 3.375,-6.328125 3.109375,-6.328125 1.65625,-6.328125 0.875,-4.453125 0.875,-4.125 0.875,-4.078125 0.9375,-4 1.03125,-4 1.140625,-4 1.171875,-4.09375 1.203125,-4.140625 1.6875,-5.734375 2.65625,-6.03125 3.0625,-6.03125 c 0.65625,0 0.78125,0.59375 0.78125,0.9375 0,0.3125 -0.078125,0.640625 -0.265625,1.328125 l -0.484375,1.96875 c -0.203125,0.859375 -0.625,1.65625 -1.390625,1.65625 -0.0625,0 -0.421875,0 -0.734375,-0.1875 0.515625,-0.109375 0.640625,-0.53125 0.640625,-0.703125 0,-0.28125 -0.21875,-0.453125 -0.484375,-0.453125 -0.34375,0 -0.71875,0.296875 -0.71875,0.75 0,0.609375 0.671875,0.875 1.28125,0.875 0.6875,0 1.1875,-0.546875 1.484375,-1.125 0.234375,0.84375 0.9375,1.125 1.46875,1.125 1.46875,0 2.25,-1.875 2.25,-2.1875 0,-0.078125 -0.0625,-0.140625 -0.15625,-0.140625 -0.125,0 -0.140625,0.078125 -0.171875,0.1875 -0.390625,1.265625 -1.234375,1.859375 -1.875,1.859375 -0.5,0 -0.765625,-0.375 -0.765625,-0.96875 0,-0.3125 0.046875,-0.546875 0.28125,-1.484375 l 0.5,-1.953125 C 4.921875,-5.40625 5.40625,-6.03125 6.0625,-6.03125 c 0.03125,0 0.4375,0 0.734375,0.171875 z m 0,0"
                 id="path3177" />
            </g>
          </g>
        </g>
      </g>
    </g>
    <path
       style="fill:none;stroke:#0000ff;stroke-width:0.352777;stroke-dasharray:none"
       d="M 39.725574,66.294623 71.818409,48.358213"
       id="path3189" />
    <path
       style="fill:none;stroke:#800000;stroke-width:0.352777;stroke-dasharray:none"
       d="m 110.39651,46.282927 33.27872,20.456402"
       id="path3189-2"
       sodipodi:nodetypes="cc" />
    <g
       inkscape:label=""
       transform="translate(65.296076,55.80703)"
       id="g3578">
      <g
         fill="#000000"
         fill-opacity="1"
         id="g31"
         transform="matrix(0.352778,0,0,0.352778,-79.0457,-0.250119)">
        <g
           id="use29"
           transform="translate(225.033,10.959)">
          <path
             d="M 6.515625,-4.796875 C 6.421875,-5.59375 5.921875,-6.5625 4.640625,-6.5625 c -2.03125,0 -4.09375,2.0625 -4.09375,4.34375 0,0.875 0.59375,2.515625 2.546875,2.515625 3.390625,0 4.84375,-4.9375 4.84375,-6.890625 0,-2.0625 -1.171875,-3.65625 -3,-3.65625 -2.078125,0 -2.703125,1.8125 -2.703125,2.203125 0,0.125 0.09375,0.4375 0.484375,0.4375 0.515625,0 0.71875,-0.453125 0.71875,-0.703125 C 3.4375,-8.75 3,-8.75 2.8125,-8.75 3.40625,-9.8125 4.484375,-9.90625 4.875,-9.90625 c 1.265625,0 2.0625,1 2.0625,2.609375 0,0.90625 -0.265625,1.96875 -0.40625,2.5 z m -3.375,4.703125 c -1.34375,0 -1.578125,-1.046875 -1.578125,-1.65625 0,-0.625 0.40625,-2.109375 0.625,-2.640625 0.171875,-0.421875 1,-1.875 2.484375,-1.875 1.3125,0 1.609375,1.125 1.609375,1.90625 0,1.0625 -0.9375,4.265625 -3.140625,4.265625 z m 0,0"
             id="path63" />
        </g>
      </g>
      <g
         fill="#000000"
         fill-opacity="1"
         id="g35"
         transform="matrix(0.352778,0,0,0.352778,-79.0457,-0.250119)">
        <g
           id="use33"
           transform="translate(233.22325,10.959)">
          <path
             d="m 5.609375,-5.390625 c -0.28125,0 -0.40625,0 -0.609375,0.171875 -0.078125,0.0625 -0.234375,0.28125 -0.234375,0.515625 0,0.28125 0.21875,0.453125 0.484375,0.453125 0.34375,0 0.734375,-0.28125 0.734375,-0.859375 0,-0.6875 -0.65625,-1.21875 -1.65625,-1.21875 -1.875,0 -3.75,2.046875 -3.75,4.09375 0,1.25 0.765625,2.375 2.234375,2.375 C 4.765625,0.140625 6,-1.375 6,-1.5625 6,-1.65625 5.90625,-1.71875 5.859375,-1.71875 c -0.046875,0 -0.0625,0.015625 -0.1875,0.140625 -0.921875,1.21875 -2.28125,1.4375 -2.828125,1.4375 -1,0 -1.3125,-0.859375 -1.3125,-1.578125 0,-0.5 0.25,-1.890625 0.765625,-2.875 0.375,-0.671875 1.140625,-1.4375 2.046875,-1.4375 0.1875,0 0.984375,0.015625 1.265625,0.640625 z m 0,0"
             id="path67" />
        </g>
      </g>
      <path
         fill="none"
         stroke-width="0.574"
         stroke-linecap="butt"
         stroke-linejoin="miter"
         stroke="#000000"
         stroke-opacity="1"
         stroke-miterlimit="10"
         d="M 0,16.369125 H 16.175782"
         id="path37"
         transform="scale(0.352778)" />
      <g
         clip-path="url(#clipPath6480)"
         id="g43"
         transform="matrix(0.352778,0,0,0.352778,-79.0457,-0.250119)">
        <g
           fill="#000000"
           fill-opacity="1"
           id="g41">
          <g
             id="use39"
             transform="translate(224.065,30.504999)">
            <path
               d="M 6.515625,-4.796875 C 6.421875,-5.59375 5.921875,-6.5625 4.640625,-6.5625 c -2.03125,0 -4.09375,2.0625 -4.09375,4.34375 0,0.875 0.59375,2.515625 2.546875,2.515625 3.390625,0 4.84375,-4.9375 4.84375,-6.890625 0,-2.0625 -1.171875,-3.65625 -3,-3.65625 -2.078125,0 -2.703125,1.8125 -2.703125,2.203125 0,0.125 0.09375,0.4375 0.484375,0.4375 0.515625,0 0.71875,-0.453125 0.71875,-0.703125 C 3.4375,-8.75 3,-8.75 2.8125,-8.75 3.40625,-9.8125 4.484375,-9.90625 4.875,-9.90625 c 1.265625,0 2.0625,1 2.0625,2.609375 0,0.90625 -0.265625,1.96875 -0.40625,2.5 z m -3.375,4.703125 c -1.34375,0 -1.578125,-1.046875 -1.578125,-1.65625 0,-0.625 0.40625,-2.109375 0.625,-2.640625 0.171875,-0.421875 1,-1.875 2.484375,-1.875 1.3125,0 1.609375,1.125 1.609375,1.90625 0,1.0625 -0.9375,4.265625 -3.140625,4.265625 z m 0,0"
               id="path71" />
          </g>
        </g>
      </g>
      <g
         clip-path="url(#clipPath2502)"
         id="g49"
         transform="matrix(0.352778,0,0,0.352778,-79.0457,-0.250119)">
        <g
           fill="#000000"
           fill-opacity="1"
           id="g47">
          <g
             id="use45"
             transform="translate(232.25525,30.504999)">
            <path
               d="m 6.796875,-5.859375 c -0.453125,0.09375 -0.625,0.4375 -0.625,0.703125 0,0.34375 0.265625,0.46875 0.46875,0.46875 0.4375,0 0.734375,-0.375 0.734375,-0.765625 0,-0.59375 -0.6875,-0.875 -1.296875,-0.875 -0.875,0 -1.359375,0.859375 -1.484375,1.140625 C 4.265625,-6.265625 3.375,-6.328125 3.109375,-6.328125 1.65625,-6.328125 0.875,-4.453125 0.875,-4.125 0.875,-4.078125 0.9375,-4 1.03125,-4 1.140625,-4 1.171875,-4.09375 1.203125,-4.140625 1.6875,-5.734375 2.65625,-6.03125 3.0625,-6.03125 c 0.65625,0 0.78125,0.59375 0.78125,0.9375 0,0.3125 -0.078125,0.640625 -0.265625,1.328125 l -0.484375,1.96875 c -0.203125,0.859375 -0.625,1.65625 -1.390625,1.65625 -0.0625,0 -0.421875,0 -0.734375,-0.1875 0.515625,-0.109375 0.640625,-0.53125 0.640625,-0.703125 0,-0.28125 -0.21875,-0.453125 -0.484375,-0.453125 -0.34375,0 -0.71875,0.296875 -0.71875,0.75 0,0.609375 0.671875,0.875 1.28125,0.875 0.6875,0 1.1875,-0.546875 1.484375,-1.125 0.234375,0.84375 0.9375,1.125 1.46875,1.125 1.46875,0 2.25,-1.875 2.25,-2.1875 0,-0.078125 -0.0625,-0.140625 -0.15625,-0.140625 -0.125,0 -0.140625,0.078125 -0.171875,0.1875 -0.390625,1.265625 -1.234375,1.859375 -1.875,1.859375 -0.5,0 -0.765625,-0.375 -0.765625,-0.96875 0,-0.3125 0.046875,-0.546875 0.28125,-1.484375 l 0.5,-1.953125 C 4.921875,-5.40625 5.40625,-6.03125 6.0625,-6.03125 c 0.03125,0 0.4375,0 0.734375,0.171875 z m 0,0"
               id="path75" />
          </g>
        </g>
      </g>
      <g
         fill="#000000"
         fill-opacity="1"
         id="g53"
         transform="matrix(0.352778,0,0,0.352778,-79.0457,-0.250119)">
        <g
           id="use51"
           transform="translate(245.424,20.664)">
          <path
             d="m 9.453125,-3.265625 c 0.265625,-0.140625 0.28125,-0.21875 0.28125,-0.3125 0,-0.09375 -0.03125,-0.1875 -0.28125,-0.3125 L 1.6875,-7.453125 C 1.5,-7.546875 1.484375,-7.5625 1.453125,-7.5625 c -0.171875,0 -0.28125,0.140625 -0.28125,0.265625 0,0.171875 0.125,0.21875 0.3125,0.3125 l 7.359375,3.40625 -7.375,3.40625 c -0.296875,0.125 -0.296875,0.234375 -0.296875,0.3125 0,0.125 0.109375,0.265625 0.28125,0.265625 0.03125,0 0.03125,-0.015625 0.234375,-0.109375 z m 0,0"
             id="path79" />
        </g>
      </g>
      <g
         fill="#000000"
         fill-opacity="1"
         id="g57"
         transform="matrix(0.352778,0,0,0.352778,-79.0457,-0.250119)">
        <g
           id="use55"
           transform="translate(260.33401,20.664)">
          <path
             d="m 6.421875,-4.59375 c 0,-1.1875 -0.0625,-2.34375 -0.578125,-3.4375 -0.59375,-1.1875 -1.625,-1.5 -2.328125,-1.5 -0.828125,0 -1.859375,0.40625 -2.375,1.59375 -0.40625,0.90625 -0.546875,1.796875 -0.546875,3.34375 0,1.390625 0.09375,2.4375 0.609375,3.453125 0.5625,1.09375 1.546875,1.4375 2.296875,1.4375 1.25,0 1.96875,-0.734375 2.375,-1.578125 0.515625,-1.078125 0.546875,-2.484375 0.546875,-3.3125 z M 3.5,0.015625 C 3.046875,0.015625 2.109375,-0.25 1.84375,-1.8125 1.671875,-2.671875 1.671875,-3.765625 1.671875,-4.765625 1.671875,-5.9375 1.671875,-7 1.90625,-7.84375 2.15625,-8.8125 2.890625,-9.25 3.5,-9.25 c 0.546875,0 1.375,0.328125 1.65625,1.5625 0.171875,0.8125 0.171875,1.953125 0.171875,2.921875 0,0.96875 0,2.046875 -0.15625,2.921875 C 4.90625,-0.265625 4,0.015625 3.5,0.015625 Z m 0,0"
             id="path83" />
        </g>
      </g>
    </g>
    <g
       inkscape:label=""
       transform="translate(127.40646,42.614133)"
       id="g3819">
      <g
         fill="#000000"
         fill-opacity="1"
         id="g3781"
         transform="matrix(0.352778,0,0,0.352778,-79.0457,-0.250119)">
        <g
           id="g3779"
           transform="translate(225.033,10.959)">
          <path
             d="M 6.515625,-4.796875 C 6.421875,-5.59375 5.921875,-6.5625 4.640625,-6.5625 c -2.03125,0 -4.09375,2.0625 -4.09375,4.34375 0,0.875 0.59375,2.515625 2.546875,2.515625 3.390625,0 4.84375,-4.9375 4.84375,-6.890625 0,-2.0625 -1.171875,-3.65625 -3,-3.65625 -2.078125,0 -2.703125,1.8125 -2.703125,2.203125 0,0.125 0.09375,0.4375 0.484375,0.4375 0.515625,0 0.71875,-0.453125 0.71875,-0.703125 C 3.4375,-8.75 3,-8.75 2.8125,-8.75 3.40625,-9.8125 4.484375,-9.90625 4.875,-9.90625 c 1.265625,0 2.0625,1 2.0625,2.609375 0,0.90625 -0.265625,1.96875 -0.40625,2.5 z m -3.375,4.703125 c -1.34375,0 -1.578125,-1.046875 -1.578125,-1.65625 0,-0.625 0.40625,-2.109375 0.625,-2.640625 0.171875,-0.421875 1,-1.875 2.484375,-1.875 1.3125,0 1.609375,1.125 1.609375,1.90625 0,1.0625 -0.9375,4.265625 -3.140625,4.265625 z m 0,0"
             id="path3777" />
        </g>
      </g>
      <g
         fill="#000000"
         fill-opacity="1"
         id="g3787"
         transform="matrix(0.352778,0,0,0.352778,-79.0457,-0.250119)">
        <g
           id="g3785"
           transform="translate(233.22325,10.959)">
          <path
             d="m 5.609375,-5.390625 c -0.28125,0 -0.40625,0 -0.609375,0.171875 -0.078125,0.0625 -0.234375,0.28125 -0.234375,0.515625 0,0.28125 0.21875,0.453125 0.484375,0.453125 0.34375,0 0.734375,-0.28125 0.734375,-0.859375 0,-0.6875 -0.65625,-1.21875 -1.65625,-1.21875 -1.875,0 -3.75,2.046875 -3.75,4.09375 0,1.25 0.765625,2.375 2.234375,2.375 C 4.765625,0.140625 6,-1.375 6,-1.5625 6,-1.65625 5.90625,-1.71875 5.859375,-1.71875 c -0.046875,0 -0.0625,0.015625 -0.1875,0.140625 -0.921875,1.21875 -2.28125,1.4375 -2.828125,1.4375 -1,0 -1.3125,-0.859375 -1.3125,-1.578125 0,-0.5 0.25,-1.890625 0.765625,-2.875 0.375,-0.671875 1.140625,-1.4375 2.046875,-1.4375 0.1875,0 0.984375,0.015625 1.265625,0.640625 z m 0,0"
             id="path3783" />
        </g>
      </g>
      <path
         fill="none"
         stroke-width="0.574"
         stroke-linecap="butt"
         stroke-linejoin="miter"
         stroke="#000000"
         stroke-opacity="1"
         stroke-miterlimit="10"
         d="M 0,16.369125 H 16.175782"
         id="path3789"
         transform="scale(0.352778)" />
      <g
         clip-path="url(#clipPath7425)"
         id="g3797"
         transform="matrix(0.352778,0,0,0.352778,-79.0457,-0.250119)">
        <g
           fill="#000000"
           fill-opacity="1"
           id="g3795">
          <g
             id="g3793"
             transform="translate(224.065,30.504999)">
            <path
               d="M 6.515625,-4.796875 C 6.421875,-5.59375 5.921875,-6.5625 4.640625,-6.5625 c -2.03125,0 -4.09375,2.0625 -4.09375,4.34375 0,0.875 0.59375,2.515625 2.546875,2.515625 3.390625,0 4.84375,-4.9375 4.84375,-6.890625 0,-2.0625 -1.171875,-3.65625 -3,-3.65625 -2.078125,0 -2.703125,1.8125 -2.703125,2.203125 0,0.125 0.09375,0.4375 0.484375,0.4375 0.515625,0 0.71875,-0.453125 0.71875,-0.703125 C 3.4375,-8.75 3,-8.75 2.8125,-8.75 3.40625,-9.8125 4.484375,-9.90625 4.875,-9.90625 c 1.265625,0 2.0625,1 2.0625,2.609375 0,0.90625 -0.265625,1.96875 -0.40625,2.5 z m -3.375,4.703125 c -1.34375,0 -1.578125,-1.046875 -1.578125,-1.65625 0,-0.625 0.40625,-2.109375 0.625,-2.640625 0.171875,-0.421875 1,-1.875 2.484375,-1.875 1.3125,0 1.609375,1.125 1.609375,1.90625 0,1.0625 -0.9375,4.265625 -3.140625,4.265625 z m 0,0"
               id="path3791" />
          </g>
        </g>
      </g>
      <g
         clip-path="url(#clipPath5007)"
         id="g3805"
         transform="matrix(0.352778,0,0,0.352778,-79.0457,-0.250119)">
        <g
           fill="#000000"
           fill-opacity="1"
           id="g3803">
          <g
             id="g3801"
             transform="translate(232.25525,30.504999)">
            <path
               d="m 6.796875,-5.859375 c -0.453125,0.09375 -0.625,0.4375 -0.625,0.703125 0,0.34375 0.265625,0.46875 0.46875,0.46875 0.4375,0 0.734375,-0.375 0.734375,-0.765625 0,-0.59375 -0.6875,-0.875 -1.296875,-0.875 -0.875,0 -1.359375,0.859375 -1.484375,1.140625 C 4.265625,-6.265625 3.375,-6.328125 3.109375,-6.328125 1.65625,-6.328125 0.875,-4.453125 0.875,-4.125 0.875,-4.078125 0.9375,-4 1.03125,-4 1.140625,-4 1.171875,-4.09375 1.203125,-4.140625 1.6875,-5.734375 2.65625,-6.03125 3.0625,-6.03125 c 0.65625,0 0.78125,0.59375 0.78125,0.9375 0,0.3125 -0.078125,0.640625 -0.265625,1.328125 l -0.484375,1.96875 c -0.203125,0.859375 -0.625,1.65625 -1.390625,1.65625 -0.0625,0 -0.421875,0 -0.734375,-0.1875 0.515625,-0.109375 0.640625,-0.53125 0.640625,-0.703125 0,-0.28125 -0.21875,-0.453125 -0.484375,-0.453125 -0.34375,0 -0.71875,0.296875 -0.71875,0.75 0,0.609375 0.671875,0.875 1.28125,0.875 0.6875,0 1.1875,-0.546875 1.484375,-1.125 0.234375,0.84375 0.9375,1.125 1.46875,1.125 1.46875,0 2.25,-1.875 2.25,-2.1875 0,-0.078125 -0.0625,-0.140625 -0.15625,-0.140625 -0.125,0 -0.140625,0.078125 -0.171875,0.1875 -0.390625,1.265625 -1.234375,1.859375 -1.875,1.859375 -0.5,0 -0.765625,-0.375 -0.765625,-0.96875 0,-0.3125 0.046875,-0.546875 0.28125,-1.484375 l 0.5,-1.953125 C 4.921875,-5.40625 5.40625,-6.03125 6.0625,-6.03125 c 0.03125,0 0.4375,0 0.734375,0.171875 z m 0,0"
               id="path3799" />
          </g>
        </g>
      </g>
      <g
         fill="#000000"
         fill-opacity="1"
         id="g3811"
         transform="matrix(0.352778,0,0,0.352778,-79.0457,-0.250119)">
        <g
           id="g3809"
           transform="translate(245.424,20.664)">
          <path
             d="m 9.453125,-6.984375 c 0.25,-0.109375 0.28125,-0.21875 0.28125,-0.296875 0,-0.15625 -0.109375,-0.28125 -0.265625,-0.28125 -0.03125,0 -0.046875,0.015625 -0.25,0.109375 l -7.75,3.5625 c -0.265625,0.125 -0.296875,0.21875 -0.296875,0.3125 0,0.09375 0.015625,0.171875 0.296875,0.3125 l 7.75,3.5625 c 0.1875,0.09375 0.21875,0.109375 0.25,0.109375 0.15625,0 0.265625,-0.125 0.265625,-0.28125 0,-0.078125 -0.03125,-0.1875 -0.28125,-0.296875 L 2.0625,-3.578125 Z m 0,0"
             id="path3807" />
        </g>
      </g>
      <g
         fill="#000000"
         fill-opacity="1"
         id="g3817"
         transform="matrix(0.352778,0,0,0.352778,-79.0457,-0.250119)">
        <g
           id="g3815"
           transform="translate(260.33401,20.664)">
          <path
             d="m 6.421875,-4.59375 c 0,-1.1875 -0.0625,-2.34375 -0.578125,-3.4375 -0.59375,-1.1875 -1.625,-1.5 -2.328125,-1.5 -0.828125,0 -1.859375,0.40625 -2.375,1.59375 -0.40625,0.90625 -0.546875,1.796875 -0.546875,3.34375 0,1.390625 0.09375,2.4375 0.609375,3.453125 0.5625,1.09375 1.546875,1.4375 2.296875,1.4375 1.25,0 1.96875,-0.734375 2.375,-1.578125 0.515625,-1.078125 0.546875,-2.484375 0.546875,-3.3125 z M 3.5,0.015625 C 3.046875,0.015625 2.109375,-0.25 1.84375,-1.8125 1.671875,-2.671875 1.671875,-3.765625 1.671875,-4.765625 1.671875,-5.9375 1.671875,-7 1.90625,-7.84375 2.15625,-8.8125 2.890625,-9.25 3.5,-9.25 c 0.546875,0 1.375,0.328125 1.65625,1.5625 0.171875,0.8125 0.171875,1.953125 0.171875,2.921875 0,0.96875 0,2.046875 -0.15625,2.921875 C 4.90625,-0.265625 4,0.015625 3.5,0.015625 Z m 0,0"
             id="path3813" />
        </g>
      </g>
    </g>
  </g>
</svg>
